<svg xmlns="http://www.w3.org/2000/svg" width="192" height="192" viewBox="0 0 192 192">
  <rect width="192" height="192" rx="40" fill="#0d59f2"/>
  <path d="M96 48c-26.5 0-48 21.5-48 48s21.5 48 48 48 48-21.5 48-48-21.5-48-48-48zm0 140c-7.2 0-13-5.8-13-13V89h26c7.2 0 13 5.8 13 13v72c0 7.2-5.8 13-13 13H83V151c0-7.2-5.8-13-13-13V89c0-7.2 5.8-13 13-13h26V63c0-7.2 5.8-13 13-13h13c7.2 0 13 5.8 13 13v26h-26c-7.2 0-13 5.8-13 13v13h26c7.2 0 13 5.8 13 13v13c0 7.2-5.8 13-13 13h-26v13c0 7.2 5.8 13 13 13h13z" fill="white"/>
  <circle cx="96" cy="96" r="8" fill="white"/>
</svg>