<svg xmlns="http://www.w3.org/2000/svg" width="512" height="512" viewBox="0 0 512 512">
  <rect width="512" height="512" rx="100" fill="#0d59f2"/>
  <path d="M256 128c-70.7 0-128 57.3-128 128s57.3 128 128 128 128-57.3 128-128-57.3-128-128-128zm0 320c-19.2 0-34.7-15.5-34.7-34.7V245.3h69.3c19.2 0 34.7 15.5 34.7 34.7v154.7c0 19.2-15.5 34.7-34.7 34.7H245.3V320c0-19.2-15.5-34.7-34.7-34.7V245.3c0-19.2 15.5-34.7 34.7-34.7h69.3V166.4c0-19.2 15.5-34.7 34.7-34.7h34.7c19.2 0 34.7 15.5 34.7 34.7v69.3h-69.3c-19.2 0-34.7 15.5-34.7 34.7v34.7h69.3c19.2 0 34.7 15.5 34.7 34.7v34.7c0 19.2-15.5 34.7-34.7 34.7h-69.3v34.7c0 19.2 15.5 34.7 34.7 34.7h34.7z" fill="white"/>
  <circle cx="256" cy="256" r="21.3" fill="white"/>
</svg>